<svg width="18" height="18" viewBox="0 0 18 18" fill="none" xmlns="http://www.w3.org/2000/svg">
<path d="M9.00002 17.3334C7.86113 17.3334 6.78474 17.1145 5.77085 16.6767C4.75696 16.2395 3.87169 15.6423 3.11502 14.8851C2.3578 14.1284 1.76058 13.2431 1.32335 12.2292C0.885576 11.2154 0.666687 10.139 0.666687 9.00008C0.666687 7.8473 0.885576 6.76758 1.32335 5.76091C1.76058 4.75369 2.3578 3.87175 3.11502 3.11508C3.87169 2.35786 4.75696 1.76036 5.77085 1.32258C6.78474 0.885359 7.86113 0.666748 9.00002 0.666748C10.1528 0.666748 11.2325 0.885359 12.2392 1.32258C13.2464 1.76036 14.1284 2.35786 14.885 3.11508C15.6422 3.87175 16.2395 4.75369 16.6767 5.76091C17.1145 6.76758 17.3334 7.8473 17.3334 9.00008V10.2084C17.3334 11.0279 17.0522 11.7256 16.49 12.3017C15.9272 12.8784 15.2361 13.1667 14.4167 13.1667C13.9167 13.1667 13.4514 13.0556 13.0209 12.8334C12.5903 12.6112 12.2361 12.3195 11.9584 11.9584C11.5834 12.3334 11.1425 12.6287 10.6359 12.8442C10.1286 13.0592 9.58335 13.1667 9.00002 13.1667C7.84724 13.1667 6.86474 12.7604 6.05252 11.9476C5.23974 11.1354 4.83335 10.1529 4.83335 9.00008C4.83335 7.8473 5.23974 6.86452 6.05252 6.05175C6.86474 5.23952 7.84724 4.83341 9.00002 4.83341C10.1528 4.83341 11.1356 5.23952 11.9484 6.05175C12.7606 6.86452 13.1667 7.8473 13.1667 9.00008V10.2084C13.1667 10.6112 13.2917 10.927 13.5417 11.1559C13.7917 11.3854 14.0834 11.5001 14.4167 11.5001C14.75 11.5001 15.0417 11.3854 15.2917 11.1559C15.5417 10.927 15.6667 10.6112 15.6667 10.2084V9.00008C15.6667 7.18064 15.0103 5.61452 13.6975 4.30175C12.3853 2.98953 10.8195 2.33341 9.00002 2.33341C7.18057 2.33341 5.61446 2.98953 4.30169 4.30175C2.98946 5.61452 2.33335 7.18064 2.33335 9.00008C2.33335 10.8195 2.98946 12.3854 4.30169 13.6976C5.61446 15.0104 7.18057 15.6667 9.00002 15.6667H13.1667V17.3334H9.00002ZM9.00002 11.5001C9.69446 11.5001 10.2847 11.257 10.7709 10.7709C11.257 10.2848 11.5 9.69452 11.5 9.00008C11.5 8.30564 11.257 7.71536 10.7709 7.22925C10.2847 6.74314 9.69446 6.50008 9.00002 6.50008C8.30557 6.50008 7.7153 6.74314 7.22919 7.22925C6.74307 7.71536 6.50002 8.30564 6.50002 9.00008C6.50002 9.69452 6.74307 10.2848 7.22919 10.7709C7.7153 11.257 8.30557 11.5001 9.00002 11.5001Z" fill="#898989"/>
</svg>
